# xmcd
#
# Track frame offsets:
#	150
#	17658
#	38864
#	52778
#	70764
#	86257
#	103567
#	120353
#	138830
#	152559
#	170067
#	191273
#	205187
#	223173
#	238666
#	255976
#	272762
#	291239
#
# Disc length: 4066
#
# Revision: 1
# Processed by: cddbd v1.5.2PL0 Copyright (c) Steve Scherf et al.
# Submitted via: kJams Pro (development) 1.0patch45.10
#
DISCID=f00fe012
DTITLE=Various Artist - NSC 3033
DYEAR=1997
DGENRE=Country
TTITLE0=Dixie Chicks - Landslide
TTITLE1=Kenny Chesney - A Lot Of Things Different
TTITLE2=George Strait - She'll Leave You With A Smile
TTITLE3=Tim McGraw - Red Ragtop
TTITLE4=Steve Holy - I'm Not Breaking
TTITLE5=Gary Allan - Man To Man
TTITLE6=Aaron Lines - You Can't Hide Beautiful
TTITLE7=Andy Griggs and Martina McBride - Practice Life
TTITLE8=Trick Pony - On A Mission
TTITLE9=Dixie Chicks - Vocals - Landslide
TTITLE10=Kenny Chesney - Vocals - A Lot Of Things Different
TTITLE11=George Strait - Vocals - She'll Leave You With A Smile
TTITLE12=Tim McGraw - Vocals - Red Ragtop
TTITLE13=Steve Holy - Vocals - I'm Not Breaking
TTITLE14=Gary Allan - Vocals - Man To Man
TTITLE15=Aaron Lines - Vocals - You Can't Hide Beautiful
TTITLE16=Andy Griggs and Martina McBride - Vocals - Practice Life
TTITLE17=Trick Pony - Vocals - On A Mission
EXTD=
EXTT0=
EXTT1=
EXTT2=
EXTT3=
EXTT4=
EXTT5=
EXTT6=
EXTT7=
EXTT8=
EXTT9=
EXTT10=
EXTT11=
EXTT12=
EXTT13=
EXTT14=
EXTT15=
EXTT16=
EXTT17=
PLAYORDER=
